PathFileType	4	(X/Y/Z)	C:\Users\Graham\Documents\MATLAB\MOtoNMS_v2_2\MyData\ElaboratedData\S1\17-05-18\dynamicElaborations\rightStSt\\NE2\NE2.trc
DataRate	CameraRate	NumFrames	NumMarkers	Units	OrigDataRate	DataStartFrame
100	100	11	29	mm	100	4
Frame#	Time	V_Sacral			R_ASIS			L_ASIS			R_Knee_Lat			R_Thigh_Upper			R_Thigh_Front			R_Thigh_Rear			L_Knee_Lat			L_Thigh_Upper			L_Thigh_Front			L_Thigh_Rear			R_Ankle_Lat			R_Shank_Upper			R_Shank_Front			R_Shank_Rear			L_Ankle_Lat			L_Shank_Upper			L_Shank_Front			L_Shank_Rear			R_Heel			R_MTP1			R_MTP5			L_Heel			L_MTP1			L_MTP5			Clavicle			C7			R_Acromium			L_Acromium		
		X1	Y1	Z1	X2	Y2	Z2	X3	Y3	Z3	X4	Y4	Z4	X5	Y5	Z5	X6	Y6	Z6	X7	Y7	Z7	X8	Y8	Z8	X9	Y9	Z9	X10	Y10	Z10	X11	Y11	Z11	X12	Y12	Z12	X13	Y13	Z13	X14	Y14	Z14	X15	Y15	Z15	X16	Y16	Z16	X17	Y17	Z17	X18	Y18	Z18	X19	Y19	Z19	X20	Y20	Z20	X21	Y21	Z21	X22	Y22	Z22	X23	Y23	Z23	X24	Y24	Z24	X25	Y25	Z25	X26	Y26	Z26	X27	Y27	Z27	X28	Y28	Z28	X29	Y29	Z29	

94	0.930000	-78.775295	1057.495429	5.493436	113.376474	1035.034807	136.579596	125.905511	1038.023014	-94.723716	138.018956	542.724204	209.030293	146.318164	890.014647	180.764223	201.993323	776.538962	157.052493	150.293118	762.525556	215.561976	121.239783	531.716077	-129.994584	169.527021	870.169547	-119.668370	189.531418	755.451961	-68.209921	165.261583	747.994316	-149.530074	-165.644092	252.516602	186.107994	37.701488	354.566180	179.562228	-58.404141	300.979117	116.725150	-72.343376	300.536553	196.711352	39.644381	97.922350	-112.946304	138.756056	315.385606	-95.215923	93.040557	207.070710	-45.793625	88.989932	205.573457	-125.587193	-252.156704	270.420996	127.584840	-95.169605	108.126044	101.228252	-109.498208	105.143646	176.795522	-35.226559	58.246897	-67.593042	199.652877	58.382734	-35.131487	183.366918	50.889636	-122.144023	136.299948	1457.218041	3.384205	-1.323680	1566.442663	-20.914176	65.242062	1494.407235	190.712939	100.436593	1476.855291	-214.180132	
95	0.940000	-79.614914	1058.629153	5.034541	112.139504	1036.411293	135.909116	125.230481	1038.611804	-95.281059	143.864351	545.453956	208.525315	146.841079	892.743308	179.697031	203.810198	779.985446	155.505567	153.357824	765.665007	214.885955	114.249160	531.462092	-130.094738	167.394274	869.608788	-120.719868	186.466851	754.885167	-68.947905	160.965139	747.055909	-150.058679	-153.496456	248.569232	185.595778	47.557891	354.987469	178.630371	-47.738933	299.679103	116.005257	-60.958411	298.367959	196.068932	30.229487	98.022396	-112.826201	130.647360	315.027323	-95.278664	84.348102	207.032828	-45.821129	80.216090	205.504924	-125.594990	-240.756966	263.305843	127.156423	-78.006149	106.787296	101.017502	-92.178179	103.414947	176.445035	-44.700679	58.371797	-67.478734	190.182255	58.193308	-35.101219	173.878220	50.720940	-122.099797	135.469423	1458.382485	2.948417	-2.134250	1567.371728	-21.836797	63.595427	1495.583497	190.113678	100.395005	1478.130101	-214.776942	
96	0.950000	-80.491750	1059.663423	4.561627	110.827972	1037.675896	135.340401	124.595587	1039.122458	-95.705055	149.342416	548.029502	207.934654	147.164589	895.363852	178.629856	205.389404	783.317500	153.964720	155.979486	768.642254	214.128049	107.226029	531.213087	-130.159041	165.150560	868.975303	-121.654403	183.214348	754.178576	-69.583660	156.595022	746.039003	-150.507523	-140.791941	243.689061	185.306930	57.602433	355.080332	177.699259	-36.777076	297.769672	115.403769	-49.137858	295.579295	195.548519	20.836600	98.120089	-112.705571	122.531398	314.684778	-95.272091	75.606747	206.993736	-45.781267	71.506152	205.443569	-125.591375	-228.673263	254.950006	126.949069	-59.995202	104.982463	100.962602	-73.967181	101.159060	176.297910	-54.158387	58.495064	-67.364777	180.725812	58.018235	-35.088066	164.401078	50.559517	-122.049823	134.664564	1459.399991	2.608717	-2.913617	1568.204543	-22.680545	61.958282	1496.624485	189.585520	100.429923	1479.318057	-215.274794	
97	0.960000	-81.396501	1060.587388	4.067989	109.457837	1038.819221	134.872763	123.977346	1039.525452	-96.003843	154.415289	550.429087	207.269610	147.319239	897.868912	177.579226	206.744051	786.516686	152.449792	158.180882	771.445450	213.308587	100.193998	530.959886	-130.200351	162.807603	868.268941	-122.416419	179.775309	753.333046	-70.085553	152.229016	744.997703	-150.850471	-127.521118	237.953283	185.260859	67.796346	354.892881	176.841384	-25.482906	295.268099	114.950092	-36.937512	292.263627	195.189599	11.457095	98.214813	-112.587219	114.413241	314.348048	-95.220648	66.821691	206.939220	-45.696090	62.846728	205.384244	-125.588855	-215.906094	245.410320	126.989254	-41.143300	102.843379	101.087366	-54.869058	98.508336	176.368488	-63.607258	58.614547	-67.252617	171.281369	57.858170	-35.095328	154.930162	50.406232	-121.994819	133.881545	1460.251637	2.378759	-3.657264	1568.925035	-23.444927	60.318436	1497.502415	189.135976	100.559527	1480.376997	-215.660355	
98	0.970000	-82.322336	1061.389955	3.556028	108.047035	1039.831135	134.500059	123.350753	1039.794122	-96.193165	159.039877	552.631173	206.539382	147.339939	900.244489	176.562570	207.877504	789.552905	150.973111	160.039955	774.083238	212.450620	93.173169	530.692575	-130.224826	160.388301	867.491478	-122.969803	176.180199	752.367928	-70.431233	147.934458	743.978003	-151.062730	-113.656741	231.432940	185.470329	78.101896	354.464393	176.124811	-13.808825	292.187003	114.668855	-24.403222	288.496499	195.022020	2.081108	98.307224	-112.470363	106.297243	314.006568	-95.147908	58.009035	206.856979	-45.584064	54.216132	205.322238	-125.593441	-202.436224	234.770700	127.290702	-21.457735	100.462708	101.418757	-34.909822	95.568167	176.670400	-73.055452	58.728600	-67.141745	161.844514	57.712558	-35.124700	145.458970	50.261271	-121.935251	133.114899	1460.926826	2.267726	-4.363340	1569.519744	-24.127727	58.663773	1498.196577	188.773199	100.790966	1481.273575	-215.923494	
99	0.980000	-83.265754	1062.058870	3.036932	106.613683	1040.700274	134.213674	122.698046	1039.908901	-96.292153	163.171930	554.614022	205.751689	147.259579	902.468321	175.598368	208.778571	792.383234	149.541631	161.667413	776.575469	211.576942	86.182204	530.400936	-130.232376	157.920787	866.643909	-123.303606	172.478125	751.311008	-70.611719	143.755764	743.006111	-151.126599	-99.160261	224.199993	185.937498	88.481413	353.825402	175.602157	-1.709035	288.542673	114.579372	-11.565992	284.336768	195.061706	-7.300399	98.397956	-112.351583	98.188638	313.649500	-95.069958	49.190381	206.738825	-45.457294	45.592192	205.252393	-125.603348	-188.226117	223.147964	127.850715	-0.963126	97.894166	101.983416	-14.140776	92.419107	177.219206	-82.509933	58.836090	-67.030650	152.409550	57.579441	-35.174546	135.981539	50.124321	-121.871691	132.359452	1461.421236	2.279202	-5.031798	1569.978208	-24.725429	56.985002	1498.693677	188.504538	101.121275	1481.984790	-216.058266	
100	0.990000	-84.226299	1062.581042	2.529196	105.174626	1041.414495	134.005155	122.013418	1039.860014	-96.319395	166.769863	556.355737	204.915157	147.104224	904.511233	174.705487	209.424926	794.956317	148.159983	163.172835	778.938621	210.709363	79.239840	530.075329	-130.218321	155.432322	865.724709	-123.432025	168.724365	750.188418	-70.632555	139.708266	742.083103	-151.036202	-83.990466	216.335012	186.651811	98.895920	352.999045	175.303429	10.847836	284.364703	114.694211	1.559890	279.831396	195.309680	-16.693731	98.486812	-112.226411	90.094219	313.266434	-94.991586	40.386634	206.582258	-45.321340	36.958983	205.168713	-125.609576	-173.223646	210.691000	128.649131	20.290910	95.162757	102.805454	7.366863	89.124290	178.033340	-91.975063	58.936452	-66.917764	142.970724	57.455502	-35.238751	126.494049	49.994842	-121.805187	131.611660	1461.734856	2.411177	-5.663560	1570.293486	-25.233594	55.277891	1498.987514	188.335250	101.539457	1482.498512	-216.063126	
101	1.000000	-85.205208	1062.944186	2.055995	103.744582	1041.962080	133.868077	121.302914	1039.648127	-96.290027	169.797547	557.834318	204.042808	146.889443	906.340097	173.902204	209.791820	797.220068	146.834364	164.627613	781.169529	209.870458	72.365008	529.707962	-130.175690	152.945024	864.729894	-123.389171	164.969736	749.017899	-70.511997	135.780394	741.187719	-150.800127	-68.112925	207.933388	187.590578	109.304774	352.003326	175.234202	23.871255	279.705115	115.016759	14.975018	275.022577	195.754268	-26.101101	98.572816	-112.091001	82.021950	312.848433	-94.906399	31.613117	206.390913	-45.177134	28.310617	205.064739	-125.598116	-157.366445	197.574374	129.649880	42.232284	92.281965	103.905874	29.531531	85.739525	179.133339	-101.451784	59.029820	-66.802077	133.523565	57.336538	-35.307137	116.995911	49.872279	-121.737479	130.870269	1461.870668	2.657053	-6.259868	1570.462608	-25.647196	53.544684	1499.078274	188.267722	102.029147	1482.813172	-215.940527	
102	1.010000	-86.203337	1063.139381	1.641658	102.336020	1042.333227	133.799068	120.580289	1039.282838	-96.214095	172.225667	559.027626	203.155436	146.617646	907.920920	173.205352	209.861154	799.129367	145.576657	166.036436	783.233097	209.086543	65.575398	529.294344	-130.097555	150.474580	863.654850	-123.220293	161.254285	747.807007	-70.276756	131.942822	740.285631	-150.441167	-51.508263	199.109036	188.722230	119.667140	350.854659	175.379369	37.347903	274.644304	115.539145	28.689490	269.955725	196.375456	-35.520060	98.655004	-111.943322	73.979805	312.389353	-94.800627	22.877560	206.173781	-45.023872	19.651440	204.934733	-125.553411	-140.586733	183.988878	130.805262	64.776352	89.273742	105.302493	52.270780	82.323935	180.539189	-110.937437	59.117196	-66.683250	124.066168	57.218410	-35.367845	107.490118	49.756161	-121.670937	130.136413	1461.834029	3.007278	-6.821830	1570.486680	-25.960983	51.794505	1498.971655	188.301419	102.571271	1482.936722	-215.696048	
103	1.020000	-87.218779	1063.163757	1.307861	100.959667	1042.521306	133.798183	119.860917	1038.779531	-96.096053	174.031587	559.913288	202.283233	146.276912	909.221003	172.629894	209.627038	800.650908	144.407783	167.328459	785.059631	208.389738	58.885050	528.834499	-129.978955	148.031713	862.497058	-122.971866	157.605707	746.555537	-69.956344	128.160736	739.341239	-149.992876	-34.177282	189.995548	190.011596	129.944505	349.572850	175.710939	51.245354	269.291396	116.242770	42.714999	264.687064	197.150103	-44.943837	98.733544	-111.783570	65.974351	311.887159	-94.659083	14.181302	205.943530	-44.861668	10.993153	204.775389	-125.462362	-122.817948	170.132166	132.063077	87.837560	86.187136	107.008449	75.507482	78.949584	182.265647	-120.426212	59.200602	-66.561304	114.600088	57.098160	-35.410928	97.982742	49.646110	-121.608183	129.413299	1461.632456	3.451200	-7.350129	1570.370393	-26.169910	50.042648	1498.677939	188.433508	103.146273	1482.884859	-215.337235	
104	1.030000	-88.244714	1063.022357	1.070302	99.625405	1042.523435	133.868808	119.156660	1038.155667	-95.935017	175.198078	560.468743	201.463979	145.842048	910.209850	172.189001	209.096581	801.763851	143.359312	168.372781	786.554253	207.817381	52.302026	528.333491	-129.818115	145.625154	861.258334	-122.682835	154.041213	745.260011	-69.577353	124.405117	738.327908	-149.493207	-16.141922	180.745534	191.426123	140.102347	348.186902	176.197045	65.516769	263.778726	117.102495	57.055996	259.289934	198.056790	-54.362535	98.810632	-111.613899	58.009617	311.344836	-94.471106	5.522552	205.714292	-44.693012	2.350222	204.587493	-125.317980	-104.005070	156.202305	133.376299	111.336970	83.112138	109.027912	99.171345	75.709290	184.315814	-129.910219	59.283096	-66.436185	105.130453	56.974802	-35.431576	88.481635	49.541785	-121.551484	128.705648	1461.275451	3.978809	-7.844990	1570.120946	-26.269566	48.308868	1498.211023	188.659963	103.735667	1482.678544	-214.872306	
